<?xml version="1.0" standalone="no"?>
<!DOCTYPE svg PUBLIC "-//W3C//DTD SVG 20010904//EN"
 "http://www.w3.org/TR/2001/REC-SVG-20010904/DTD/svg10.dtd">
<svg version="1.0" xmlns="http://www.w3.org/2000/svg"
 viewBox="0 0 2600.000000 2600.000000"
 preserveAspectRatio="xMidYMid meet">
<metadata>
Created by potrace 1.15, written by Peter Selinger 2001-2017
</metadata>
<g transform="translate(0.000000,2600.000000) scale(0.100000,-0.100000)"
fill="#000000" stroke="none">
<path d="M8320 24363 c-84 -10 -236 -46 -331 -79 -649 -224 -1078 -855 -1128
-1657 -48 -768 288 -1385 869 -1597 l75 -28 -45 -11 c-200 -51 -359 -159 -498
-338 -122 -158 -173 -336 -130 -457 l14 -39 42 70 c111 187 280 373 447 491
78 56 333 192 358 192 5 0 -15 -20 -45 -45 -72 -62 -141 -146 -182 -225 -41
-78 -78 -206 -74 -254 3 -34 4 -34 93 86 103 139 207 240 293 286 80 43 86 42
78 -10 -36 -220 -48 -651 -26 -893 22 -242 113 -804 159 -981 46 -176 92 -288
261 -634 87 -179 177 -375 199 -437 73 -202 147 -530 166 -738 10 -120 8 -115
70 -115 l55 0 0 -33 c0 -19 -11 -65 -24 -103 -47 -141 -114 -249 -262 -429
-273 -330 -560 -703 -716 -930 -94 -136 -229 -357 -223 -363 7 -8 73 40 160
115 107 93 157 126 279 184 98 47 235 90 280 88 17 -1 16 -2 -5 -9 -80 -24
-183 -94 -435 -295 -75 -60 -171 -137 -213 -170 -99 -78 -277 -250 -356 -345
-188 -226 -293 -451 -366 -790 -16 -74 -37 -153 -45 -174 -50 -128 -105 -439
-125 -696 -16 -209 -7 -763 15 -930 46 -353 100 -547 270 -969 311 -773 668
-1423 1155 -2105 250 -350 351 -508 443 -689 59 -118 124 -295 150 -409 22
-98 22 -98 56 -104 74 -14 783 4 996 25 191 19 526 63 586 78 14 3 23 3 20 0
-10 -11 -301 -86 -446 -115 -293 -59 -562 -88 -914 -98 l-227 -7 -7 -151 c-23
-530 -48 -1022 -62 -1216 -14 -213 -24 -282 -100 -710 -33 -184 -37 -333 -11
-408 31 -87 135 -187 372 -356 90 -65 85 -65 -93 -4 -127 43 -240 97 -322 154
-30 20 -77 52 -104 71 -93 64 -143 46 -364 -129 -71 -57 -167 -131 -213 -164
-366 -267 -660 -651 -1084 -1414 -60 -107 -148 -256 -195 -330 -189 -293 -231
-426 -179 -565 17 -47 45 -81 162 -203 267 -278 439 -424 649 -551 381 -229
970 -409 1598 -486 487 -60 1271 -76 1665 -35 803 84 1752 371 2345 708 187
106 244 144 258 174 26 56 33 134 23 255 -6 65 -11 161 -11 214 0 303 -99 918
-216 1341 -37 136 -175 608 -179 615 0 1 -55 -4 -120 -12 -124 -15 -470 -19
-540 -7 l-39 7 54 14 c98 24 302 89 437 138 l132 48 7 40 c12 86 -26 218 -126
434 -100 216 -102 179 28 566 152 454 215 713 241 995 10 103 18 230 15 230
-1 0 -13 -17 -28 -39 -15 -21 -49 -50 -76 -65 -45 -25 -50 -25 -50 -9 1 68 74
220 181 375 207 298 250 367 294 472 64 153 137 377 131 401 -9 37 -155 183
-262 263 -114 86 -228 156 -469 288 -246 134 -325 183 -825 514 -396 263 -500
326 -700 430 -381 198 -460 249 -621 397 l-58 54 -106 -16 c-148 -22 -294 -20
-465 5 -424 62 -753 175 -999 344 -126 86 -464 357 -603 482 -143 130 -386
384 -456 479 -45 60 -98 162 -89 171 2 3 28 -23 57 -58 89 -108 339 -367 465
-481 398 -362 689 -548 1044 -667 261 -87 489 -130 689 -130 103 0 265 20 279
34 3 3 -37 49 -89 104 -166 176 -319 360 -715 867 -116 149 -240 302 -275 342
-127 145 -238 223 -458 324 -172 78 -273 129 -269 134 2 2 47 -1 99 -6 184
-18 381 -80 656 -207 213 -98 187 -94 619 -102 391 -8 534 -20 702 -60 98 -23
223 -70 278 -105 38 -24 38 -25 10 -19 -16 4 -64 17 -105 30 -157 49 -243 58
-565 58 -165 1 -402 -3 -528 -8 -224 -9 -227 -9 -221 -30 15 -50 126 -218 263
-400 325 -432 803 -870 1348 -1234 199 -133 295 -192 723 -442 717 -419 1002
-600 1307 -829 180 -135 302 -247 418 -383 168 -198 525 -443 772 -531 246
-88 451 -95 672 -21 164 54 285 130 430 269 316 303 548 782 746 1545 141 543
253 922 405 1380 93 280 158 460 334 928 164 436 253 802 356 1457 39 252 84
501 114 630 l23 100 -36 3 c-271 19 -469 64 -673 152 -50 22 -92 40 -92 40 -1
0 -1 -80 -2 -178 -1 -166 -3 -184 -32 -295 -94 -349 -298 -735 -612 -1157
-234 -314 -783 -959 -1061 -1246 -347 -357 -447 -497 -525 -734 -27 -81 -28
-94 -28 -270 -1 -281 37 -443 164 -710 102 -215 106 -230 40 -161 -143 150
-240 348 -408 836 -127 368 -148 421 -174 454 -318 391 -565 638 -918 921
-360 287 -504 410 -786 672 -94 87 -210 190 -257 228 -78 62 -213 150 -230
150 -14 0 -6 -100 18 -215 26 -124 30 -171 18 -201 -4 -12 -14 17 -28 81 -12
55 -42 179 -68 275 -25 96 -58 234 -73 305 -69 328 -167 564 -346 830 -45 66
-98 149 -120 185 l-39 65 87 -89 c202 -209 314 -410 443 -795 75 -223 113
-302 171 -361 107 -107 561 -480 1013 -833 461 -360 712 -573 969 -826 54 -52
99 -93 102 -90 5 4 3 22 -39 369 -35 293 -62 374 -167 495 -90 104 -181 177
-428 341 -372 248 -798 576 -1069 826 -164 152 -291 294 -611 688 -74 91 -207
248 -295 350 -312 360 -443 529 -555 719 l-44 74 17 136 c35 277 120 559 237
792 100 198 287 416 448 522 102 67 175 138 170 164 -2 8 -30 25 -63 38 -152
57 -341 169 -477 282 -127 106 -200 202 -257 340 l-29 70 162 -162 c118 -119
186 -178 256 -224 202 -132 475 -243 735 -298 115 -24 152 -27 320 -27 208 -1
273 10 368 62 65 35 131 110 159 180 21 51 23 73 23 222 0 187 2 195 79 270
42 40 46 48 46 91 0 64 -27 95 -143 160 -166 95 -266 223 -275 353 l-5 61 55
-50 c103 -95 258 -155 398 -155 l66 0 10 114 c13 128 28 163 83 194 44 24 75
29 256 41 169 12 253 35 314 88 66 56 98 143 71 193 -5 10 -52 50 -104 90
-278 208 -548 562 -612 800 -19 72 -25 265 -11 361 l8 57 41 5 c109 15 278
138 374 272 137 193 191 480 153 823 -56 514 -343 1014 -674 1176 -112 55
-158 66 -315 75 -81 5 -135 13 -155 24 -37 19 -84 68 -209 219 -115 139 -190
208 -311 289 -284 189 -646 317 -1018 359 -192 22 -609 8 -743 -26 -20 -5 -21
-2 -27 123 -8 179 -55 345 -149 525 -232 447 -729 770 -1310 853 -94 13 -358
18 -448 8z"/>
<path d="M17355 17433 c-22 -2 -88 -13 -148 -24 -354 -66 -692 -259 -925 -529
-377 -437 -498 -1030 -321 -1573 183 -562 649 -972 1249 -1098 153 -33 427
-33 590 0 374 74 689 252 932 527 288 328 439 779 400 1202 -15 159 -33 246
-82 395 -172 518 -607 920 -1145 1057 -159 41 -382 58 -550 43z m320 -1028
c229 -48 432 -242 490 -470 19 -73 21 -221 5 -301 -36 -179 -175 -356 -345
-439 -96 -47 -173 -65 -282 -65 -122 0 -180 13 -288 65 -212 102 -347 305
-362 545 -15 240 116 477 330 599 49 28 153 65 207 74 58 10 180 6 245 -8z"/>
<path d="M17466 16073 c-104 -35 -191 -149 -203 -268 -18 -168 125 -325 297
-325 97 0 155 23 221 89 64 64 90 127 90 216 0 209 -204 354 -405 288z"/>
<path d="M7226 10909 c-3 -13 -7 -71 -10 -129 -4 -58 -15 -260 -26 -450 -11
-190 -26 -502 -35 -695 -8 -192 -22 -485 -31 -649 -32 -578 -8 -781 120 -1022
94 -176 211 -306 496 -548 96 -82 216 -186 265 -231 50 -45 135 -119 189 -165
105 -87 457 -323 591 -396 82 -44 157 -65 169 -46 20 32 24 198 16 652 -8 425
-12 510 -29 605 -25 138 -59 242 -121 373 -91 191 -177 319 -459 682 -144 185
-347 483 -433 635 -81 143 -167 323 -239 498 -113 276 -199 452 -299 612 -51
83 -108 183 -126 224 -27 62 -34 70 -38 50z"/>
<path d="M15002 6819 c-614 -71 -1148 -505 -1351 -1096 -171 -498 -79 -1071
239 -1495 567 -755 1631 -876 2357 -267 274 230 465 555 544 925 21 95 24 136
23 319 0 179 -3 225 -22 311 -92 421 -320 772 -659 1013 -324 231 -735 336
-1131 290z m418 -1038 c137 -43 278 -154 352 -276 20 -33 49 -96 64 -140 25
-70 28 -94 28 -200 0 -103 -4 -132 -27 -200 -64 -194 -225 -355 -417 -416 -92
-30 -246 -36 -342 -15 -231 51 -423 238 -483 471 -21 78 -21 242 0 320 28 109
83 203 170 291 67 68 96 89 175 127 52 25 118 51 145 56 79 16 259 6 335 -18z"/>
<path d="M15170 5471 c-172 -53 -262 -229 -205 -402 24 -72 109 -158 179 -182
152 -52 318 17 386 158 33 70 34 179 1 253 -32 70 -115 147 -183 167 -54 16
-136 18 -178 6z"/>
<path d="M13102 6127 c-54 -174 -198 -579 -247 -695 -42 -102 -24 -135 131
-230 115 -71 342 -182 373 -182 4 0 7 78 7 173 1 293 46 504 164 769 l48 108
-115 60 c-64 34 -155 86 -203 116 -49 30 -92 54 -97 54 -4 0 -32 -78 -61 -173z"/>
</g>
</svg>
