<?xml version="1.0" encoding="UTF-8"?>
<svg xmlns="http://www.w3.org/2000/svg" viewBox="0 0 128 128" width="128" height="128" role="img" aria-label="Bench press">
  <title>Bench press</title>
  <circle cx="64" cy="64" r="60" fill="#EADDFF"/>
  <circle cx="64" cy="64" r="54" fill="none" stroke="#D0BCFF" stroke-width="3"/>
  <g fill="none" stroke-linecap="round" stroke-linejoin="round">
    <rect x="22" y="78" width="84" height="10" rx="4" fill="#21005D" stroke="none"/>
    <line x1="30" y1="88" x2="30" y2="104" stroke="#21005D" stroke-width="5"/>
    <line x1="98" y1="88" x2="98" y2="104" stroke="#21005D" stroke-width="5"/>
    <line x1="18" y1="40" x2="110" y2="40" stroke="#21005D" stroke-width="5"/>
    <rect x="15" y="33" width="7" height="14" rx="2" fill="#21005D" stroke="none"/>
    <rect x="24" y="35" width="5" height="10" rx="2" fill="#7D5260" stroke="none"/>
    <rect x="106" y="33" width="7" height="14" rx="2" fill="#21005D" stroke="none"/>
    <rect x="99" y="35" width="5" height="10" rx="2" fill="#7D5260" stroke="none"/>
    <ellipse cx="64" cy="70" rx="22" ry="8" fill="#4F378B" stroke="none"/>
    <circle cx="34" cy="68" r="8.5" fill="#4F378B" stroke="none"/>
    <line x1="50" y1="68" x2="36" y2="42" stroke="#4F378B" stroke-width="9"/>
    <line x1="78" y1="68" x2="92" y2="42" stroke="#4F378B" stroke-width="9"/>
  </g>
</svg>
